<svg width="40" height="40" viewBox="0 0 40 40" fill="none" xmlns="http://www.w3.org/2000/svg">
<g id="icon-user">
<g id="Shape">
<path fill-rule="evenodd" clip-rule="evenodd" d="M20 3.33337C15.3976 3.33337 11.6667 7.06433 11.6667 11.6667C11.6667 16.2691 15.3976 20 20 20C24.6024 20 28.3333 16.2691 28.3333 11.6667C28.3333 7.06433 24.6024 3.33337 20 3.33337ZM15 11.6667C15 8.90528 17.2386 6.66671 20 6.66671C22.7614 6.66671 25 8.90528 25 11.6667C25 14.4281 22.7614 16.6667 20 16.6667C17.2386 16.6667 15 14.4281 15 11.6667Z" fill="#1A202C"/>
<path d="M13.3333 23.3334C11.1232 23.3334 9.00358 24.2113 7.44078 25.7742C5.87797 27.337 5 29.4566 5 31.6667V35C5 35.9205 5.74619 36.6667 6.66667 36.6667C7.58714 36.6667 8.33333 35.9205 8.33333 35V31.6667C8.33333 30.3406 8.86012 29.0689 9.7978 28.1312C10.7355 27.1935 12.0073 26.6667 13.3333 26.6667H26.6667C27.9927 26.6667 29.2645 27.1935 30.2022 28.1312C31.1399 29.0689 31.6667 30.3406 31.6667 31.6667V35C31.6667 35.9205 32.4129 36.6667 33.3333 36.6667C34.2538 36.6667 35 35.9205 35 35V31.6667C35 29.4566 34.122 27.337 32.5592 25.7742C30.9964 24.2114 28.8768 23.3334 26.6667 23.3334H13.3333Z" fill="#1A202C"/>
</g>
</g>
</svg>
