<svg width="17" height="16" viewBox="0 0 17 16" fill="none" xmlns="http://www.w3.org/2000/svg">
<g id="Icon Left">
<path id="Shape" fill-rule="evenodd" clip-rule="evenodd" d="M3.5 7.33333C3.5 4.9401 5.4401 3 7.83333 3C10.2266 3 12.1667 4.9401 12.1667 7.33333C12.1667 8.49276 11.7113 9.54583 10.9697 10.3235C10.9432 10.3451 10.9175 10.3682 10.8928 10.3929C10.8681 10.4176 10.845 10.4432 10.8234 10.4698C10.0458 11.2113 8.99273 11.6667 7.83333 11.6667C5.4401 11.6667 3.5 9.72657 3.5 7.33333ZM11.5487 12.463C10.5051 13.2202 9.22134 13.6667 7.83333 13.6667C4.33553 13.6667 1.5 10.8311 1.5 7.33333C1.5 3.83553 4.33553 1 7.83333 1C11.3311 1 14.1667 3.83553 14.1667 7.33333C14.1667 8.72137 13.7201 10.0051 12.9629 11.0488L15.207 13.2929C15.5976 13.6834 15.5976 14.3166 15.207 14.7071C14.8165 15.0976 14.1834 15.0976 13.7928 14.7071L11.5487 12.463Z" fill="#1A202C"/>
</g>
</svg>
